<svg xmlns="http://www.w3.org/2000/svg" width="279" height="279" viewBox="0 0 279 279"><defs><style>.a{fill:#fff;}.b{fill:#2d4356;}.c{fill:#058a40;}</style></defs><g transform="translate(-664 -202)"><circle class="a" cx="139.5" cy="139.5" r="139.5" transform="translate(664 202)"/><g transform="translate(718.562 256.637)"><circle class="b" cx="2.022" cy="2.022" r="2.022" transform="translate(0 144.782)"/><path class="b" d="M11.056,143.258H8.022a2.022,2.022,0,0,0,0,4.045h3.033a2.022,2.022,0,0,0,0-4.045Zm150.664,0h-3.033a2.022,2.022,0,0,0,0,4.045h3.033a2.022,2.022,0,0,0,0-4.045Z" transform="translate(0.067 1.524)"/><circle class="b" cx="2.022" cy="2.022" r="2.022" transform="translate(165.831 144.782)"/><path class="c" d="M118.937,151.258h-8.4a2.029,2.029,0,0,0,0,4.045h8.4a2.029,2.029,0,0,0,0-4.045Zm-60.67,0h-8.4a2.029,2.029,0,0,0,0,4.045h8.4a2.029,2.029,0,0,0,0-4.045Zm46.358,0H64.179a2.022,2.022,0,1,0,0,4.045H80.3v2.022H72.268a2.022,2.022,0,1,0,0,4.045H97.547a2.022,2.022,0,1,0,0-4.045h-9.04V155.3h16.118a2.022,2.022,0,1,0,0-4.045Z" transform="translate(0.536 1.614)"/><path class="b" d="M24.045,117.518H47.692L60.673,130.03a4.045,4.045,0,0,0,6.852-2.912v-9.6h3.034a4.045,4.045,0,0,0,4.045-4.045v-26.8a4.045,4.045,0,0,0-4.045-4.045H24.045A4.045,4.045,0,0,0,20,86.671v26.8A4.045,4.045,0,0,0,24.045,117.518Zm0-30.847H70.558v26.8H63.48v13.645L49.324,113.473H24.045ZM98.871,85.49H101.9V95.772a4.045,4.045,0,0,0,6.922,2.843L121.795,85.49h23.59a4.045,4.045,0,0,0,4.045-4.045V53.3a4.045,4.045,0,0,0-4.045-4.045H98.871A4.045,4.045,0,0,0,94.826,53.3V81.445A4.045,4.045,0,0,0,98.871,85.49Zm0-32.187h46.514V81.445H120.105L105.949,95.772V81.445H98.871Z" transform="translate(0.223 0.475)"/><path class="c" d="M37.089,77.3H90.681V73.258H37.089A8.1,8.1,0,0,0,29.6,78.314H34.44A4.011,4.011,0,0,1,37.089,77.3ZM29,121.295v10.611A8.1,8.1,0,0,0,37.089,140h95.05a8.1,8.1,0,0,0,8.089-8.089V89.266h-4.045v42.64a4.045,4.045,0,0,1-4.045,4.045H37.089a4.045,4.045,0,0,1-4.045-4.045V121.295Z" transform="translate(0.324 0.743)"/><path class="b" d="M152.256,144.779H17.323a2.04,2.04,0,1,0,0,4.045H152.256a2.04,2.04,0,1,0,0-4.045ZM111.08,37.6a3.033,3.033,0,1,0-3.034-3.033A3.033,3.033,0,0,0,111.08,37.6Zm0-4.55a1.517,1.517,0,1,1-1.517,1.517A1.517,1.517,0,0,1,111.08,33.045ZM159.924,74a2.022,2.022,0,1,0,2.022,2.022A2.022,2.022,0,0,0,159.924,74Zm0,3.034a1.011,1.011,0,1,1,1.011-1.011A1.011,1.011,0,0,1,159.924,77.031ZM71.952,57.819a2.022,2.022,0,1,0,2.022,2.022,2.022,2.022,0,0,0-2.022-2.022Zm0,3.033a1.011,1.011,0,1,1,1.011-1.011A1.011,1.011,0,0,1,71.952,60.852ZM156.158,7.058a2.022,2.022,0,1,0,2.022,2.022A2.022,2.022,0,0,0,156.158,7.058Zm0,3.033a1.011,1.011,0,1,1,1.011-1.011A1.011,1.011,0,0,1,156.158,10.092ZM17.349,32.54a2.022,2.022,0,1,0-2.022,2.022,2.022,2.022,0,0,0,2.022-2.022Zm-3.033,0a1.011,1.011,0,1,1,1.011,1.011A1.011,1.011,0,0,1,14.316,32.54Z" transform="translate(0.149 0.004)"/><path class="c" d="M10.924,73.3l1.5-1.978-.949-.538L10.512,73h-.031L9.5,70.8l-.966.554,1.487,1.93v.031l-2.327-.3v1.076l2.342-.3v.031l-1.5,1.93.9.569,1.029-2.231H10.5l.949,2.214,1-.569-1.519-1.9V73.8l2.388.285V73.013l-2.388.317Z" transform="translate(0.086 0.715)"/><path class="c" d="M52.1,38.344l-.866,1.111.52.328.593-1.284h.017l.547,1.275.574-.328-.875-1.093v-.018l1.375.164v-.62l-1.375.182v-.018l.866-1.139-.546-.309L52.37,37.87h-.018L51.786,36.6l-.556.319.856,1.112v.018l-1.34-.174v.62l1.349-.173Z" transform="translate(0.567 0.333)"/><path class="c" d="M160.09,38.729V37.674l-2.343.309v-.03l1.474-1.939-.931-.528-.946,2.172h-.031l-.962-2.157-.947.543,1.459,1.894v.03l-2.281-.294v1.055l2.3-.294v.031L155.4,40.358l.885.559,1.009-2.188h.03l.931,2.173.978-.559-1.489-1.862V38.45Z" transform="translate(1.726 0.321)"/><path class="c" d="M74.381,8.869,75.653,7.2l-.8-.455-.816,1.874h-.027l-.83-1.861-.817.468,1.259,1.633v.027L71.65,8.629v.91l1.982-.254v.026L72.36,10.944l.762.482.872-1.888h.026l.8,1.875.843-.482L74.381,9.325V9.3l2.021.241v-.91L74.381,8.9Z" transform="translate(0.8 0)"/></g></g></svg>