<svg xmlns="http://www.w3.org/2000/svg" width="26.675" height="19.122" viewBox="0 0 26.675 19.122"><defs><style>.a{fill:none;stroke:#000;stroke-width:1.5px;}</style></defs><path class="a" d="M7.552,11.061A4.406,4.406,0,1,0,3.147,6.656,4.4,4.4,0,0,0,7.552,11.061Zm3.021,1.259h-.326a6.083,6.083,0,0,1-5.389,0H4.531A4.533,4.533,0,0,0,0,16.851v1.133a1.889,1.889,0,0,0,1.888,1.888H13.217A1.889,1.889,0,0,0,15.1,17.984V16.851A4.533,4.533,0,0,0,10.573,12.32Zm8.308-1.259A3.776,3.776,0,1,0,15.1,7.285,3.777,3.777,0,0,0,18.881,11.061Zm1.888,1.259H20.62a4.96,4.96,0,0,1-3.477,0h-.149a4.369,4.369,0,0,0-2.191.606,5.757,5.757,0,0,1,1.562,3.926v1.51c0,.087-.02.169-.024.252h6.947a1.889,1.889,0,0,0,1.888-1.888,4.4,4.4,0,0,0-4.406-4.406Z" transform="translate(0.75 -1.5)"/></svg>