<svg xmlns="http://www.w3.org/2000/svg" width="16.572" height="16.572" viewBox="0 0 16.572 16.572"><defs><style>.a{fill:#fff;stroke:#fff;stroke-linecap:round;stroke-linejoin:round;stroke-width:0.5px;}</style></defs><g transform="translate(0.25 0.25)"><path class="a" d="M3.679,5.018H1V15.4a1.676,1.676,0,0,0,1.674,1.674H15.4A1.676,1.676,0,0,0,17.072,15.4V1H3.679ZM1.67,15.4V5.688H3.679V15.4a1,1,0,0,1-2.009,0ZM4.348,1.67H16.4V15.4a1.006,1.006,0,0,1-1,1H4.013c.01-.013.017-.028.026-.042s.036-.056.053-.084a1.636,1.636,0,0,0,.2-.475c.008-.031.017-.062.023-.094a1.634,1.634,0,0,0,.032-.31V1.67Z" transform="translate(-1 -1)"/><path class="a" d="M15,8h9.375v.67H15Z" transform="translate(-10.312 -5.656)"/><path class="a" d="M19,13h6.7v.67H19Z" transform="translate(-12.973 -8.982)"/><path class="a" d="M31,21h4.018v.67H31Z" transform="translate(-20.955 -14.303)"/><path class="a" d="M31,26h4.018v.67H31Z" transform="translate(-20.955 -17.629)"/><path class="a" d="M19.018,21H15v4.018h4.018Zm-.67,3.348H15.67V21.67h2.679Z" transform="translate(-10.312 -14.303)"/><path class="a" d="M31,31h4.018v.67H31Z" transform="translate(-20.955 -20.955)"/><path class="a" d="M15,36h4.018v.67H15Z" transform="translate(-10.312 -24.281)"/><path class="a" d="M31,36h4.018v.67H31Z" transform="translate(-20.955 -24.281)"/><path class="a" d="M15,41h4.018v.67H15Z" transform="translate(-10.312 -27.606)"/><path class="a" d="M31,41h4.018v.67H31Z" transform="translate(-20.955 -27.606)"/></g></svg>