<svg xmlns="http://www.w3.org/2000/svg" width="19.5" height="19.5" viewBox="0 0 19.5 19.5"><defs><style>.a,.b{fill:none;stroke:#20342a;stroke-width:1.5px;}.a{opacity:0;}</style></defs><g transform="translate(0.75 0.318)"><g transform="translate(0 0.432)"><rect class="a" width="18" height="18" transform="translate(0 0)"/><path class="b" d="M15.143,4.252A7.7,7.7,0,0,0,2.6,12.725a.817.817,0,0,1,.069.493l-.678,3.258a.765.765,0,0,0,.77.924h.154l3.3-.662a.971.971,0,0,1,.493.069,7.7,7.7,0,0,0,8.473-12.54ZM6.616,10.468a.77.77,0,1,1,.77-.77A.77.77,0,0,1,6.616,10.468Zm3.081,0a.77.77,0,1,1,.77-.77A.77.77,0,0,1,9.7,10.468Zm3.081,0a.77.77,0,1,1,.77-.77A.77.77,0,0,1,12.778,10.468Z" transform="translate(-0.697 -1.052)"/></g></g></svg>